<mxfile host="app.diagrams.net" modified="2021-08-25T02:49:58.323Z" agent="5.0 (Windows NT 10.0; Win64; x64) AppleWebKit/537.36 (KHTML, like Gecko) Chrome/92.0.4515.159 Safari/537.36" etag="zQw4zYMth_ZzhBPBjfsI" version="14.9.9" type="github">
  <diagram id="48AvwrvLqZhcV174zIY1" name="第 1 页">
    <mxGraphModel dx="1955" dy="1170" grid="0" gridSize="10" guides="1" tooltips="1" connect="1" arrows="0" fold="1" page="1" pageScale="1" pageWidth="1169" pageHeight="827" math="0" shadow="0">
      <root>
        <mxCell id="0" />
        <mxCell id="1" parent="0" />
        <mxCell id="-g8Jtw1yL-xQZXcP63ED-2" value="&lt;span style=&quot;font-size: 21px&quot;&gt;云台&lt;/span&gt;" style="rounded=1;whiteSpace=wrap;html=1;" vertex="1" parent="1">
          <mxGeometry x="271" y="396" width="120" height="60" as="geometry" />
        </mxCell>
        <mxCell id="-g8Jtw1yL-xQZXcP63ED-4" value="&lt;span style=&quot;font-size: 21px&quot;&gt;边缘计算模块&lt;/span&gt;" style="rounded=1;whiteSpace=wrap;html=1;" vertex="1" parent="1">
          <mxGeometry x="556" y="396" width="143" height="60" as="geometry" />
        </mxCell>
        <mxCell id="-g8Jtw1yL-xQZXcP63ED-6" value="" style="endArrow=classic;html=1;entryX=-0.002;entryY=0.563;entryDx=0;entryDy=0;entryPerimeter=0;exitX=0.999;exitY=0.552;exitDx=0;exitDy=0;exitPerimeter=0;" edge="1" parent="1" source="-g8Jtw1yL-xQZXcP63ED-2" target="-g8Jtw1yL-xQZXcP63ED-4">
          <mxGeometry width="50" height="50" relative="1" as="geometry">
            <mxPoint x="444" y="432" as="sourcePoint" />
            <mxPoint x="494" y="382" as="targetPoint" />
          </mxGeometry>
        </mxCell>
        <mxCell id="-g8Jtw1yL-xQZXcP63ED-7" value="&lt;font style=&quot;font-size: 18px&quot;&gt;图像输入&lt;/font&gt;" style="edgeLabel;html=1;align=center;verticalAlign=middle;resizable=0;points=[];" vertex="1" connectable="0" parent="-g8Jtw1yL-xQZXcP63ED-6">
          <mxGeometry x="-0.1274" y="1" relative="1" as="geometry">
            <mxPoint as="offset" />
          </mxGeometry>
        </mxCell>
        <mxCell id="-g8Jtw1yL-xQZXcP63ED-10" value="&lt;span style=&quot;font-size: 21px&quot;&gt;小目标&lt;br&gt;检测模型&lt;/span&gt;" style="rounded=1;whiteSpace=wrap;html=1;" vertex="1" parent="1">
          <mxGeometry x="556" y="254" width="143" height="60" as="geometry" />
        </mxCell>
        <mxCell id="-g8Jtw1yL-xQZXcP63ED-11" value="" style="endArrow=classic;html=1;exitX=0.5;exitY=1;exitDx=0;exitDy=0;entryX=0.5;entryY=0;entryDx=0;entryDy=0;" edge="1" parent="1" source="-g8Jtw1yL-xQZXcP63ED-10" target="-g8Jtw1yL-xQZXcP63ED-4">
          <mxGeometry width="50" height="50" relative="1" as="geometry">
            <mxPoint x="667" y="411" as="sourcePoint" />
            <mxPoint x="717" y="361" as="targetPoint" />
          </mxGeometry>
        </mxCell>
        <mxCell id="-g8Jtw1yL-xQZXcP63ED-12" value="&lt;span style=&quot;font-size: 21px&quot;&gt;检测结果&lt;/span&gt;" style="rounded=1;whiteSpace=wrap;html=1;" vertex="1" parent="1">
          <mxGeometry x="864" y="396" width="143" height="60" as="geometry" />
        </mxCell>
        <mxCell id="-g8Jtw1yL-xQZXcP63ED-13" value="" style="endArrow=classic;html=1;entryX=-0.002;entryY=0.563;entryDx=0;entryDy=0;entryPerimeter=0;exitX=0.999;exitY=0.552;exitDx=0;exitDy=0;exitPerimeter=0;" edge="1" parent="1">
          <mxGeometry width="50" height="50" relative="1" as="geometry">
            <mxPoint x="699.0000000000001" y="425.9999999999999" as="sourcePoint" />
            <mxPoint x="863.8340000000002" y="426.65999999999997" as="targetPoint" />
          </mxGeometry>
        </mxCell>
        <mxCell id="-g8Jtw1yL-xQZXcP63ED-14" value="&lt;font style=&quot;font-size: 18px&quot;&gt;程序执行&lt;/font&gt;" style="edgeLabel;html=1;align=center;verticalAlign=middle;resizable=0;points=[];" vertex="1" connectable="0" parent="-g8Jtw1yL-xQZXcP63ED-13">
          <mxGeometry x="-0.1274" y="1" relative="1" as="geometry">
            <mxPoint as="offset" />
          </mxGeometry>
        </mxCell>
      </root>
    </mxGraphModel>
  </diagram>
</mxfile>
